<mxfile host="app.diagrams.net" modified="2024-02-27T04:39:54.335Z" agent="Mozilla/5.0 (Windows NT 10.0; Win64; x64) AppleWebKit/537.36 (KHTML, like Gecko) Chrome/122.0.0.0 Safari/537.36" version="22.1.16" etag="vcvdk-fndFucguk6BYS3" type="github">
  <diagram name="Page-1" id="WtVvD8jM_9gRfh4y6xlL">
    <mxGraphModel>
      <root>
        <mxCell id="0" />
        <mxCell id="1" parent="0" />
      </root>
    </mxGraphModel>
  </diagram>
</mxfile>
